<svg width="115" height="35" viewBox="0 0 115 35" fill="none" xmlns="http://www.w3.org/2000/svg">
<g clip-path="url(#clip0_16_39)">
<path d="M28.8262 14.0583L28.9636 14.9814L31.2194 15.8118C31.2791 17.4638 31.309 19.2681 31.309 21.2367V28.4779C31.309 29.392 31.309 30.1179 31.2881 30.6795V33.9327C32.3876 33.9327 33.4722 33.8998 34.5747 33.8998C35.6144 33.8998 36.6661 33.9208 37.7089 33.9297V20.2241V19.1188C37.7089 16.7807 37.7537 14.5761 37.8433 12.5049L37.5953 12.3257C34.8077 12.9261 32.531 13.5057 28.8262 14.0583Z" fill="white"/>
<path d="M86.6996 31.4921C84.1222 31.4921 82.1383 30.7951 80.748 29.401C79.3577 28.0069 78.6605 25.8511 78.6565 22.9335C78.6565 20.4302 79.2063 18.4317 80.3058 16.938C81.4053 15.4444 82.8135 14.6976 84.5305 14.6976C85.0882 14.6787 85.645 14.7555 86.1768 14.9246L87.9157 20.5467L89.1586 20.3465C89.5669 18.0184 90.042 15.7989 90.5838 13.6879C88.4974 12.8355 86.2645 12.3991 84.0106 12.4034C80.4253 12.4034 77.4773 13.4758 75.1668 15.6207C72.8562 17.7655 71.7029 20.5746 71.7069 24.0478C71.7069 27.2342 72.7686 29.7754 74.8919 31.6713C77.0152 33.5673 79.7261 34.5202 83.0247 34.5302C85.7486 34.5145 88.4208 33.7853 90.775 32.4152L90.5927 31.0649C89.3132 31.3412 88.0086 31.4844 86.6996 31.4921Z" fill="white"/>
<path d="M33.8994 8.20302C34.659 8.20716 35.4028 7.98573 36.0364 7.56679C36.6701 7.14784 37.165 6.55025 37.4586 5.84975C37.7522 5.14925 37.8311 4.37737 37.6855 3.63195C37.5398 2.88653 37.1761 2.20113 36.6404 1.66261C36.1048 1.12408 35.4212 0.756689 34.6765 0.606986C33.9317 0.457283 33.1593 0.532011 32.4571 0.821699C31.7549 1.11139 31.1545 1.60299 30.732 2.23421C30.3096 2.86543 30.084 3.60784 30.084 4.36735C30.082 4.86985 30.1792 5.3678 30.37 5.83269C30.5608 6.29758 30.8415 6.72027 31.1959 7.07657C31.5503 7.43286 31.9715 7.71575 32.4354 7.90905C32.8993 8.10234 33.3968 8.20224 33.8994 8.20302Z" fill="white"/>
<path d="M115 21.595C115 18.7292 114.176 16.4837 112.529 14.8586C110.882 13.2336 108.543 12.419 105.514 12.415C102.052 12.415 99.2015 13.4765 96.9627 15.5995C94.7238 17.7224 93.6064 20.4628 93.6104 23.8205C93.6104 27.3435 94.7736 30.0091 97.1001 31.8174C99.4266 33.6257 102.427 34.5289 106.102 34.5269C109.165 34.5331 112.184 33.8091 114.91 32.4149L114.731 30.9989C113.182 31.2872 111.61 31.4293 110.034 31.4231C106.648 31.4231 104.211 30.7639 102.723 29.4455C101.229 28.1222 100.5 25.9594 100.5 22.9422H114.934C114.976 22.4792 115 22.0311 115 21.595ZM108.128 20.7615H100.59C100.66 19.2017 101.114 17.6832 101.91 16.3403C102.671 15.1175 103.691 14.5071 104.97 14.5091C105.453 14.4843 105.933 14.5955 106.355 14.83C106.778 15.0645 107.126 15.4129 107.36 15.8355C107.878 16.7217 108.137 18.1835 108.137 20.2208L108.128 20.7615Z" fill="white"/>
<path d="M23.5766 27.1843V19.2769C23.5766 17.0863 22.9532 15.3935 21.7063 14.1986C20.4594 13.0036 18.7334 12.4062 16.5284 12.4062C14.0456 12.4062 11.5329 14.566 8.98428 16.0805V6.79009C8.98428 4.45404 9.03009 2.25042 9.12172 0.179237L8.87373 0C6.07418 0.597457 3.76461 1.19491 0 1.72964L0.13445 2.65271L2.47986 3.54889C2.53962 5.19787 2.5695 7.00418 2.5695 8.96782V28.657C2.5695 29.3978 2.5695 30.1686 2.5695 30.9602V33.9146C3.65705 33.9027 4.75258 33.8967 5.85607 33.8967C6.95956 33.8967 8.01126 33.9027 9.01117 33.9146V29.1857C9.01117 28.2597 8.99623 27.2918 8.99623 26.2761V18.2762C9.94336 17.4009 11.5986 15.5339 12.8475 15.5339C14.2796 15.5339 15.3572 15.9322 16.0803 16.7288C16.8033 17.5254 17.1639 18.8488 17.1619 20.6989V30.1208C17.1619 30.4882 17.1619 30.7929 17.1619 31.0319V33.9206C18.2165 33.9206 19.331 33.8997 20.5112 33.8997C21.542 33.8997 22.5608 33.9236 23.5856 33.9325V28.5047C23.5766 28.0805 23.5766 27.6473 23.5766 27.1843Z" fill="white"/>
<path d="M66.801 27.1845V19.2771C66.801 17.0864 66.1766 15.3936 64.9277 14.1987C63.6788 13.0038 61.9538 12.4064 59.7528 12.4064C57.267 12.4064 54.7543 14.6468 52.2087 16.3257V12.5288L51.871 12.3496C48.9938 12.9799 46.7918 13.5445 43.311 14.0583L43.4485 14.9814L45.7132 15.8149C45.775 17.4798 45.8058 19.294 45.8058 21.2577V28.6572C45.8058 29.5414 45.7979 30.4635 45.7819 31.4234C45.7813 31.4314 45.7813 31.4394 45.7819 31.4473V33.9148C46.8755 33.9029 47.971 33.8969 49.0685 33.8969C50.159 33.8969 51.2048 33.8969 52.2117 33.9148V27.6086C52.2117 27.1725 52.2117 26.7304 52.2117 26.2763V18.7125C52.9825 17.7506 54.823 15.5341 56.0689 15.5341C57.503 15.5341 58.5806 15.9324 59.3017 16.729C59.959 17.4549 60.2996 18.6378 60.3594 20.2271V31.3338V33.9208C61.42 33.9208 62.5345 33.8999 63.7146 33.8999C64.7544 33.8999 65.7762 33.9238 66.807 33.9327V30.121C66.807 29.3263 66.801 28.3585 66.801 27.1845Z" fill="white"/>
</g>
<defs>
<clipPath id="clip0_16_39">
<rect width="115" height="34.53" fill="white"/>
</clipPath>
</defs>
</svg>
