<svg width="35" height="35" viewBox="0 0 35 35" fill="none" xmlns="http://www.w3.org/2000/svg">
<path d="M27.9742 14.8723C27.9742 23.086 21.712 29.7446 13.9871 29.7446C6.26225 29.7446 0 23.086 0 14.8723C0 6.65855 6.26225 0 13.9871 0C21.712 0 27.9742 6.65855 27.9742 14.8723ZM2.09807 14.8723C2.09807 21.854 7.42098 27.5137 13.9871 27.5137C20.5533 27.5137 25.8762 21.854 25.8762 14.8723C25.8762 7.89061 20.5533 2.23084 13.9871 2.23084C7.42098 2.23084 2.09807 7.89061 2.09807 14.8723Z" fill="#A36D6A"/>
<path d="M24.7168 24.9418L33.5068 33.1644C33.5761 33.2293 33.5832 33.3411 33.5227 33.4142C33.4623 33.4872 33.3571 33.494 33.2878 33.4292L24.4978 25.2065C24.4285 25.1417 24.4213 25.0299 24.4818 24.9568C24.5423 24.8837 24.6475 24.877 24.7168 24.9418Z" fill="#A36D6A" stroke="#A36D6A" stroke-width="1.17179"/>
</svg>
