<svg width="35" height="35" viewBox="0 0 35 35" fill="none" xmlns="http://www.w3.org/2000/svg">
<path d="M31.2797 9.55018L33.7697 32.8939C33.8327 33.4848 33.3696 34 32.7753 34H2.17794C1.59211 34 1.13175 33.4987 1.18156 32.915L3.17356 9.57123C3.21771 9.05378 3.65061 8.65625 4.16994 8.65625H18.6667H30.2853C30.7965 8.65625 31.2255 9.04184 31.2797 9.55018Z" stroke="#A36D6A" stroke-width="2"/>
<path d="M9.98911 10.0496C9.85496 10.3991 9.72944 10.7302 9.61001 11.0466C9.93051 8.49872 10.7084 6.24799 11.7731 4.52652C12.5188 3.32098 13.3774 2.41187 14.2928 1.81885C13.7292 2.40762 13.2138 3.1535 12.7447 3.95592C11.6888 5.7625 10.7537 8.05798 9.98911 10.0496ZM19.5002 1.81885C20.4156 2.41187 21.2742 3.32098 22.0199 4.52652C23.0847 6.24799 23.8625 8.49872 24.183 11.0466C24.0636 10.7302 23.9381 10.3991 23.8039 10.0496C23.0394 8.05798 22.1043 5.7625 21.0483 3.95592C20.5793 3.1535 20.0638 2.40762 19.5002 1.81885Z" stroke="#A36D6A" stroke-width="2"/>
</svg>
